<svg width="714" height="659" viewBox="0 0 714 659" fill="none" xmlns="http://www.w3.org/2000/svg">
<path d="M486.571 538.485C558.563 509.938 620.301 485.457 637.784 409.887C653.038 343.949 566.451 339.541 583.588 245.273C600.725 151.006 458.664 85.9963 344.077 72.0691C261.388 62.0187 198.158 65.692 136.682 121.899C64.6128 187.792 316.234 255.813 80.3475 365.523C-155.539 475.232 325.432 602.385 485.381 538.957L486.571 538.485Z" fill="#7ECE14"/>
<g clip-path="url(#clip0_134_623)">
<path d="M310.921 112.944L571.707 252.416V428.155L310.921 288.683V112.944Z" fill="#D65BAC"/>
<path d="M212.102 165.808L472.888 305.261V481L212.102 341.528V165.808Z" fill="#D65BAC"/>
<path d="M299.044 388.018L212.102 341.528V165.808L299.044 212.298V388.018Z" fill="#FCAA2D"/>
<path d="M385.966 434.509L299.044 388.018V212.298L385.966 258.77V434.509Z" fill="#3089DB"/>
<path d="M472.888 481L385.966 434.509V258.77L472.888 305.261V481Z" fill="#78913A"/>
<g style="mix-blend-mode:multiply">
<path d="M472.888 305.261V331.342L212.122 191.946V165.808L299.044 212.298L385.966 258.77L472.888 305.261Z" fill="#CCCCCC"/>
</g>
<path d="M284.035 280.47L225.022 248.888V218.254L284.035 249.817V280.47Z" fill="#FFE042"/>
<path d="M281.086 275.823L227.971 247.409V223.755L281.086 252.17V275.823Z" fill="#1A3331"/>
<path d="M239.028 243.046V229.673L227.971 223.755V247.409L281.086 275.823V265.542L239.028 243.046Z" fill="#FFF642"/>
<path d="M239.028 243.046L227.971 247.409V223.755L239.028 229.673V243.046Z" fill="#FC912D"/>
<path d="M458.943 373.869L399.91 342.306V311.653L458.943 343.235V373.869Z" fill="#8CA64D"/>
<path d="M455.975 369.221L402.859 340.826V317.173L455.975 345.568V369.221Z" fill="#1A3331"/>
<path d="M413.917 336.444V323.091L402.859 317.173V340.826L455.975 369.221V358.941L413.917 336.444Z" fill="#D8F59D"/>
<path d="M413.917 336.444L402.859 340.826V317.173L413.917 323.091V336.444Z" fill="#476108"/>
<path d="M371.162 326.031L312.129 294.468V263.834L371.162 295.397V326.031Z" fill="#75BDFF"/>
<path d="M368.193 321.403L315.077 292.989V269.335L368.193 297.75V321.403Z" fill="#1A3331"/>
<path d="M326.134 288.607V275.253L315.077 269.335V292.989L368.193 321.403V311.103L326.134 288.607Z" fill="#42A5FF"/>
<path d="M326.134 288.607L315.077 292.989V269.335L326.134 275.253V288.607Z" fill="#1B72C2"/>
<path d="M571.706 428.155V252.416L472.888 305.261V481L571.706 428.155Z" fill="#476108"/>
<g style="mix-blend-mode:multiply">
<path d="M571.706 252.416V278.194L472.888 331.342L472.97 305.223L571.706 252.416Z" fill="#CCCCCC"/>
</g>
<path d="M212.102 165.808L310.92 112.944L571.706 252.416L472.888 305.261L212.102 165.808Z" fill="#D65BAC"/>
<path d="M574 239.973L573.898 268.937L477.188 321.004L477.27 292.021L574 239.973Z" fill="#A6A6A6"/>
<path d="M477.27 292.021L477.188 321.004L206 176.051L206.082 147.067L477.27 292.021Z" fill="#CCCCCC"/>
<path d="M574 239.973L477.27 292.021L206.082 147.067L302.812 95L574 239.973Z" fill="#F2F2F2"/>
<path d="M229.65 147.029L302.833 107.633L550.432 239.992L477.25 279.389L229.65 147.029Z" fill="#E6E6E6"/>
<path d="M312.928 120.227L246.236 155.887L234.155 149.438L300.847 113.759L312.928 120.227Z" fill="#CCCCCC"/>
<path d="M302.833 119.033L539.805 245.72L550.432 239.992L302.833 107.633L229.65 147.029L240.278 152.701L302.833 119.033Z" fill="#CCCCCC"/>
<path d="M302.832 107.633L309.036 122.352L302.832 119.033V107.633Z" fill="#BFBFBF"/>
<path d="M302.833 119.033V107.633L229.65 147.029L240.278 152.701L302.833 119.033Z" fill="#A6A6A6"/>
<path d="M459.23 321.156L464.083 318.519L464.206 280.64L459.353 283.277L459.23 321.156Z" fill="#476108"/>
<path d="M459.354 283.277L464.207 280.64L214.355 146.916L209.522 149.552L459.354 283.277Z" fill="#D8F59D"/>
<path d="M459.231 321.156L459.354 283.277L209.522 149.552L209.379 187.431L459.231 321.156Z" fill="#8CA64D"/>
<path d="M450.733 310.136L217.774 185.8C216.216 184.764 214.942 183.404 214.053 181.83C213.164 180.255 212.685 178.51 212.655 176.733V165.352C212.655 161.862 214.949 160.25 217.774 161.767L450.733 286.122C452.291 287.158 453.566 288.518 454.455 290.092C455.344 291.667 455.822 293.412 455.852 295.189V306.57C455.852 310.041 453.559 311.653 450.733 310.136Z" fill="#FCAA2D"/>
<path d="M222.442 176.449L221.746 173.699L221.07 173.338V173.111L224.715 175.007V175.254L224.019 174.875L225.78 181.722L227.172 176.563L226.005 175.937V175.69L228.339 176.961V177.189L227.561 176.771L225.514 184.245L224.469 183.676L222.729 177.113L221.111 181.969L220.087 181.419L217.139 171.233L216.586 170.929V170.702L220.395 172.731V172.978L219.575 172.523L221.5 179.522L222.442 176.449Z" fill="white"/>
<path d="M230.858 184.131L228.544 182.898L227.643 185.117L228.524 185.572V185.819L226.722 184.852V184.624L227.275 184.909L230.264 177.947L231.226 178.459L234.196 188.607L234.728 188.911V189.195L230.899 187.147V186.9L231.718 187.355L230.858 184.131ZM228.646 182.689L230.694 183.827L229.67 180.034L228.646 182.689Z" fill="white"/>
<path d="M239.991 190.504C239.991 189.48 239.274 188.74 237.82 187.526C237.084 187.043 236.477 186.411 236.044 185.678C235.611 184.945 235.364 184.131 235.322 183.296C235.322 181.893 236.285 181.115 238.107 182.082C238.824 182.54 239.507 183.041 240.155 183.581C240.359 183.676 240.4 183.581 240.482 183.581H240.625V186.141H240.441C240.002 184.66 239.088 183.337 237.82 182.348C236.981 181.893 236.387 182.101 236.387 182.841C236.387 183.581 237.185 184.51 238.435 185.477C239.221 185.967 239.876 186.616 240.352 187.375C240.827 188.134 241.11 188.984 241.178 189.859C241.178 191.756 240.032 192.23 238.312 191.301C237.454 190.788 236.633 190.224 235.854 189.613C235.67 189.613 235.588 189.613 235.506 189.802H235.343L235.22 186.767H235.424C235.956 188.462 237.026 189.969 238.496 191.092C239.213 191.396 239.991 191.415 239.991 190.504Z" fill="white"/>
<path d="M248.796 191.092L248.57 190.978C247.936 188.607 247.567 187.564 246.523 186.995H246.379V195.208L247.383 195.739V196.005L243.083 193.71V193.444L244.086 193.975V185.781H243.943C242.857 185.212 242.468 185.933 241.895 187.545L241.588 187.298V184.226L248.529 188.019L248.796 191.092Z" fill="white"/>
<path d="M255.573 191.547L255.696 194.089L255.491 193.975C255.362 193.235 255.061 192.529 254.608 191.906C254.156 191.284 253.563 190.76 252.87 190.371L252.46 190.163V193.956L252.849 194.165C253.607 194.582 254.098 194.165 254.303 193.311H254.488V197.105L254.283 196.991C254.253 196.482 254.097 195.987 253.827 195.543C253.557 195.099 253.181 194.718 252.727 194.431L252.46 194.279V198.281L252.89 198.528C254.385 199.324 255.429 198.793 255.778 197.617L256.003 197.75V200.405L249.553 196.972V196.783L250.249 197.162V188.968L249.553 188.607V188.323L255.573 191.547Z" fill="white"/>
<path d="M261.532 198.679V199.666C261.401 200.549 261.506 201.448 261.838 202.285C262.17 203.122 262.719 203.87 263.436 204.465C264.399 204.977 265.156 204.332 265.811 203.061L266.016 203.175V205.906H265.893C265.893 205.698 265.77 205.584 265.586 205.489C264.774 205.265 263.986 204.973 263.231 204.616C261.964 203.986 260.911 203.042 260.188 201.89C259.465 200.738 259.101 199.423 259.136 198.091C259.136 195.075 260.795 194.298 263.231 195.645C263.996 196.12 264.728 196.639 265.422 197.2C265.627 197.314 265.668 197.2 265.75 197.2H265.873V199.95L265.668 199.836C265.351 198.363 264.516 197.029 263.293 196.043C262.167 195.189 261.532 196.005 261.532 198.679Z" fill="white"/>
<path d="M270.91 199.628C272.126 200.285 273.125 201.24 273.796 202.387C274.468 203.534 274.787 204.83 274.718 206.134C274.718 208.922 273.49 209.927 270.766 208.543C269.543 207.906 268.534 206.969 267.851 205.834C267.168 204.699 266.838 203.411 266.896 202.112C266.896 199.248 268.207 198.224 270.91 199.628ZM272.302 204.37C272.302 201.809 272.302 200.576 270.807 199.76C269.313 198.945 269.292 200.272 269.292 202.814V203.725C269.292 206.058 269.435 207.518 270.807 208.22C272.179 208.922 272.302 207.803 272.302 205.299V204.37Z" fill="white"/>
<path d="M279.673 204.37V204.636L278.424 203.972V212.166L278.854 212.374C280.308 213.152 280.902 212.374 281.639 211.236L281.885 211.369L281.659 214.157L275.517 210.838V210.554L276.213 210.933V202.758L275.517 202.378V202.094L279.673 204.37Z" fill="white"/>
<path d="M286.635 208.163V208.448L285.386 207.765V215.959L285.796 216.187C287.27 216.965 287.843 216.187 288.601 215.03L288.847 215.163L288.683 217.989L282.54 214.65V214.385L283.236 214.745V206.57L282.54 206.267V206.001L286.635 208.163Z" fill="white"/>
<path d="M295.542 212.924L295.665 215.466L295.44 215.352C295.319 214.612 295.023 213.905 294.574 213.282C294.124 212.659 293.532 212.135 292.84 211.748L292.43 211.54V215.333L292.819 215.542C293.577 215.959 294.068 215.542 294.273 214.688H294.457V218.482L294.252 218.368C294.226 217.859 294.071 217.362 293.801 216.917C293.531 216.473 293.153 216.093 292.696 215.808L292.43 215.656V219.658L292.86 219.905C294.355 220.701 295.399 220.17 295.747 218.994L295.972 219.127V221.782L289.522 218.349V218.065L290.219 218.444V210.25L289.522 209.889V209.605L295.542 212.924Z" fill="white"/>
<path d="M299.106 218.672V219.658C298.969 220.541 299.072 221.442 299.404 222.28C299.736 223.118 300.288 223.866 301.01 224.457C301.952 224.969 302.71 224.324 303.385 223.053L303.59 223.167V225.917H303.467C303.447 225.831 303.407 225.749 303.35 225.677C303.294 225.605 303.222 225.545 303.14 225.5C302.331 225.284 301.549 224.992 300.805 224.628C299.535 224 298.479 223.057 297.756 221.905C297.032 220.752 296.67 219.435 296.71 218.103C296.71 215.087 298.348 214.309 300.805 215.656C301.566 216.136 302.298 216.656 302.996 217.211C303.181 217.325 303.221 217.211 303.303 217.211H303.447V219.961L303.242 219.848C302.922 218.38 302.095 217.049 300.887 216.054C299.74 215.276 299.106 216.092 299.106 218.672Z" fill="white"/>
<path d="M311.555 224.628L311.33 224.514C310.695 222.143 310.347 221.1 309.283 220.531H309.16V228.744L310.143 229.275V229.541L305.843 227.132V226.866L306.846 227.397V219.203L306.682 219.108C305.617 218.539 305.228 219.26 304.634 220.872L304.409 220.758L304.532 217.686L311.473 221.479L311.555 224.628Z" fill="white"/>
<path d="M315.875 223.812V224.04L315.22 223.699V231.95L315.875 232.291V232.538L312.292 230.641V230.394L312.927 230.755V222.485L312.292 222.143V221.916L315.875 223.812Z" fill="white"/>
<path d="M320.667 226.221C321.881 226.885 322.877 227.844 323.544 228.994C324.212 230.144 324.527 231.442 324.455 232.746C324.455 235.516 323.227 236.54 320.524 235.155C319.302 234.517 318.294 233.579 317.612 232.445C316.929 231.31 316.597 230.023 316.654 228.725C316.654 225.842 318.046 224.818 320.667 226.221ZM322.039 231.058C322.039 228.497 322.039 227.264 320.565 226.43C319.09 225.595 319.049 226.942 319.049 229.503V230.413C319.049 232.746 319.193 234.207 320.565 234.909C321.936 235.61 322.039 234.491 322.039 231.987V231.058Z" fill="white"/>
<path d="M331.868 241.092L330.23 240.22L326.134 229.996V237.83L326.79 238.171V238.399L325.172 237.545V237.317L325.827 237.659V229.389L325.172 229.047V228.82L328.428 230.546L331.499 238.456V232.424L330.844 232.082V231.855L332.461 232.708V232.936L331.806 232.594L331.868 241.092Z" fill="white"/>
<path d="M339.137 242.041L336.823 240.808L335.922 243.027L336.803 243.482V243.729L335.001 242.761V242.534L335.554 242.818L338.543 235.857L339.506 236.369L342.475 246.517L343.007 246.821V247.048L339.158 245V244.753L339.997 245.208L339.137 242.041ZM336.926 240.58L338.973 241.718L337.95 237.925L336.926 240.58Z" fill="white"/>
<path d="M350.112 250.784L348.453 249.912L344.358 239.688V247.522L344.993 247.863V248.11L343.396 247.237V247.01L344.03 247.351V239.1L343.396 238.74V238.512L346.631 240.238L349.702 248.148V242.135L349.067 241.775V241.547L350.665 242.401V242.647L350.112 242.306V250.784Z" fill="white"/>
<path d="M354.514 253.194L351.197 251.43V251.183L351.955 251.601V243.349L351.197 242.932V242.686L354.822 244.582C356.187 245.159 357.341 246.093 358.142 247.269C358.942 248.445 359.354 249.812 359.326 251.202C359.326 254.787 357.32 254.711 354.514 253.194ZM354.699 253.061C356.275 253.915 356.91 253.156 356.91 250.368V249.647C356.91 246.612 356.173 245.607 354.535 244.715L354.248 244.563V252.833L354.699 253.061Z" fill="white"/>
<path d="M367.23 258.562C367.23 257.519 366.493 256.798 365.059 255.584C364.318 255.102 363.706 254.468 363.273 253.731C362.84 252.994 362.596 252.174 362.561 251.335C362.561 249.95 363.524 249.154 365.346 250.121C366.058 250.585 366.741 251.086 367.394 251.619C367.599 251.733 367.64 251.619 367.721 251.619H367.865V254.18L367.68 254.066C367.241 252.585 366.328 251.262 365.059 250.273C364.22 249.818 363.626 250.026 363.626 250.766C363.626 251.506 364.425 252.416 365.674 253.384C366.458 253.879 367.112 254.532 367.587 255.294C368.062 256.056 368.346 256.907 368.418 257.784C368.418 259.567 367.271 260.136 365.551 259.226C364.698 258.706 363.878 258.143 363.094 257.538C362.909 257.538 362.828 257.538 362.746 257.727H362.582L362.459 254.692L362.664 254.806C363.181 256.493 364.229 257.998 365.674 259.131C366.493 259.377 367.23 259.472 367.23 258.562Z" fill="white"/>
<path d="M373.353 254.407C374.57 255.065 375.568 256.02 376.24 257.167C376.911 258.314 377.23 259.61 377.162 260.913C377.162 263.702 375.913 264.707 373.21 263.322C371.987 262.686 370.978 261.748 370.295 260.613C369.611 259.478 369.281 258.19 369.34 256.892C369.34 254.028 370.732 253.004 373.353 254.407ZM374.725 259.244C374.725 256.683 374.725 255.451 373.251 254.616C371.776 253.781 371.735 255.128 371.735 257.689V258.58C371.735 260.932 371.879 262.374 373.251 263.095C374.623 263.815 374.725 262.677 374.725 260.155V259.244Z" fill="white"/>
<path d="M380.826 262.867V267.059L381.584 267.457V267.704L377.775 265.655V265.428L378.533 265.826V257.575L377.775 257.158V256.93L381.318 258.827C383.775 260.136 384.942 261.046 384.942 262.867C384.942 264.385 384.184 264.423 382.894 263.872C383.458 264.183 383.916 264.634 384.217 265.174C384.517 265.714 384.648 266.321 384.594 266.926V267.59C384.594 268.406 384.594 268.709 384.942 268.88C385.29 269.051 385.331 268.994 385.495 268.102L385.7 268.235C385.515 269.563 385.188 269.752 384.103 269.164C383.44 268.881 382.894 268.406 382.547 267.811C382.2 267.216 382.071 266.533 382.178 265.864V265.067C382.178 264.176 382.014 263.626 381.379 263.284L380.826 262.867ZM380.826 262.639L381.195 262.848C382.075 263.303 382.505 263.038 382.505 261.691V261.274C382.582 260.809 382.499 260.333 382.268 259.914C382.036 259.495 381.668 259.155 381.215 258.941L380.826 258.732V262.639Z" fill="white"/>
<path d="M393.112 268.197L392.907 268.084C392.272 265.713 391.904 264.688 390.86 264.119H390.716V272.313L391.699 272.844V273.11L387.317 270.758V270.511L388.321 271.043V262.829H388.157C387.092 262.26 386.703 262.981 386.109 264.593L385.904 264.461L386.007 261.407L392.948 265.2L393.112 268.197Z" fill="white"/>
<path d="M397.351 267.382V267.609L396.696 267.268V275.519L397.351 275.879V276.107L393.768 274.21V273.983L394.423 274.324V266.054L393.768 265.713V265.485L397.351 267.382Z" fill="white"/>
<path d="M404.58 279.976L402.921 279.085L398.826 268.861V276.695L399.46 277.055V277.283L397.863 276.429V276.183L398.498 276.524V268.273L397.863 267.932V267.685L401.099 269.43L404.17 277.34V271.308L403.535 270.966V270.758L405.132 271.63V271.858L404.498 271.517L404.58 279.976Z" fill="white"/>
<path d="M410.866 282.234V279.806L410.108 279.407V279.142L413.487 281.039V281.304L413.036 281.058V284.586H412.852C412.75 284.313 412.537 284.088 412.258 283.96C411.45 283.723 410.657 283.444 409.883 283.125C408.616 282.495 407.562 281.551 406.839 280.399C406.116 279.247 405.752 277.932 405.787 276.6C405.787 273.584 407.426 272.807 409.883 274.153C410.673 274.644 411.432 275.176 412.156 275.747C412.34 275.86 412.381 275.747 412.463 275.747H412.606V278.497L412.401 278.383C412.03 276.88 411.173 275.517 409.944 274.476C408.777 273.869 408.142 274.665 408.142 277.245V278.231C408.142 280.773 408.777 282.348 409.842 282.936C410.907 283.524 410.866 282.86 410.866 282.234Z" fill="white"/>
<path d="M419.732 279.293C421.943 280.469 423.233 281.683 423.233 283.656C423.233 285.629 421.698 285.553 419.425 284.282H419.322V287.62L420.797 288.417V288.645L416.271 286.236V285.932L417.05 286.35V278.098L416.271 277.681V277.454L419.732 279.293ZM419.322 283.998L419.568 284.13C420.551 284.661 420.817 284.13 420.817 282.613V282.025C420.817 280.602 420.531 279.957 419.65 279.483L419.322 279.312V283.998Z" fill="white"/>
<path d="M427.922 283.543C429.139 284.2 430.137 285.155 430.809 286.302C431.481 287.449 431.799 288.745 431.731 290.049C431.731 292.837 430.502 293.842 427.779 292.458C426.556 291.821 425.547 290.884 424.864 289.749C424.181 288.614 423.85 287.326 423.909 286.027C423.827 283.163 425.199 282.139 427.922 283.543ZM429.315 288.361C429.315 285.819 429.315 284.567 427.82 283.751C426.325 282.936 426.305 284.263 426.305 286.824V287.716C426.305 290.068 426.448 291.509 427.82 292.211C429.192 292.913 429.315 291.794 429.315 289.29V288.361Z" fill="white"/>
<path d="M435.99 288.038V288.285L435.334 287.924V296.194L435.99 296.536V296.763L432.406 294.866V294.639L433.041 294.98V286.729L432.406 286.388V286.141L435.99 288.038Z" fill="white"/>
<path d="M443.198 300.633L441.56 299.76L437.464 289.537V297.314L438.12 297.655V297.883L436.502 297.029V296.782L437.157 297.143V288.873L436.502 288.531V288.304L439.758 290.03L442.829 297.94V291.908L442.256 291.623V291.396L443.873 292.249V292.477L443.218 292.135L443.198 300.633Z" fill="white"/>
<path d="M451.736 299.589L451.511 299.476C450.876 297.105 450.508 296.061 449.463 295.492H449.32V303.705L450.323 304.237V304.502L446.023 302.207V301.941L447.027 302.472V294.278L446.883 294.183C445.798 293.614 445.409 294.335 444.836 295.966L444.61 295.834L444.713 292.761L451.654 296.554L451.736 299.589Z" fill="white"/>
<path d="M372.247 359.244L312.743 327.416C312.01 326.933 311.411 326.297 310.994 325.558C310.578 324.819 310.356 324 310.348 323.167V310.838C310.348 309.206 311.412 308.448 312.743 309.149L372.247 340.94C372.977 341.426 373.574 342.063 373.99 342.801C374.406 343.539 374.63 344.356 374.643 345.189V357.518C374.684 359.206 373.578 359.908 372.247 359.244Z" fill="black"/>
<path d="M320.913 317.571L321.036 320.454L320.79 320.322C320.659 319.481 320.325 318.679 319.815 317.973C319.305 317.267 318.631 316.676 317.842 316.243L317.371 315.997V320.36L317.821 320.606C318.681 321.061 319.234 320.606 319.48 319.639L319.664 319.753V323.869H319.398C319.375 323.29 319.203 322.725 318.896 322.22C318.59 321.715 318.158 321.286 317.637 320.966L317.33 320.796V325.329L317.821 325.614C319.521 326.505 320.688 325.898 321.097 324.57L321.364 324.722V327.738L313.992 323.869V323.565L314.77 323.982V314.707L313.992 314.271V313.967L320.913 317.571Z" fill="white"/>
<path d="M322.674 324.077L326.032 325.86V326.296L322.674 324.495V324.077Z" fill="white"/>
<path d="M333.465 327.264L332.646 324.134L331.889 323.717V323.451L335.984 325.651V325.936L335.206 325.5L337.253 333.258L338.871 327.415L337.52 326.714V326.429L340.182 327.852V328.136L339.301 327.662L336.844 336.122L335.677 335.496L333.629 328.041L331.909 333.523L330.742 332.897L327.384 321.327L326.77 320.985V320.72L331.09 323.034V323.299L330.169 322.806L332.339 330.735L333.465 327.264Z" fill="white"/>
<path d="M343.006 335.97L340.365 334.567L339.341 337.071L340.345 337.602V337.886L338.297 336.786V336.52L338.911 336.862L342.31 328.952L343.395 329.54L346.754 341.054L347.368 341.376V341.642L343.006 339.309V339.043L343.948 339.555L343.006 335.97ZM340.488 334.32L342.904 335.61L341.737 331.285L340.488 334.32Z" fill="white"/>
<path d="M353.368 343.197C353.368 342.021 352.528 341.205 350.89 339.821C350.057 339.272 349.369 338.555 348.88 337.723C348.39 336.892 348.111 335.968 348.064 335.022C348.064 333.429 349.17 332.537 351.218 333.637C352.042 334.16 352.835 334.723 353.593 335.325C353.818 335.458 353.88 335.325 353.961 335.325H354.125V338.228L353.92 338.114C353.431 336.43 352.394 334.927 350.951 333.808C350.01 333.296 349.334 333.542 349.334 334.377C349.334 335.212 350.235 336.274 351.586 337.355C352.476 337.916 353.218 338.657 353.757 339.52C354.296 340.384 354.618 341.349 354.699 342.344C354.699 344.373 353.388 345.018 351.443 343.975C350.473 343.397 349.543 342.764 348.658 342.078C348.433 341.964 348.371 342.078 348.249 342.287L348.064 342.192L347.941 338.759L348.167 338.872C348.747 340.791 349.939 342.504 351.586 343.785C352.467 344.202 353.368 344.221 353.368 343.197Z" fill="white"/>
<path d="M363.34 343.823L363.074 343.69C362.357 340.997 361.948 339.897 360.74 339.176L360.576 339.081V348.394L361.702 349.001V349.305L356.849 346.63V346.327L357.975 346.934V337.621H357.811C356.603 336.976 356.153 337.791 355.457 339.631L355.211 339.498L355.354 336.008L363.197 340.219L363.34 343.823Z" fill="white"/>
<path d="M371.039 344.392L371.162 347.256L370.937 347.124C370.789 346.285 370.447 345.487 369.935 344.783C369.422 344.079 368.751 343.486 367.968 343.045L367.497 342.799V347.18L367.947 347.427C368.807 347.882 369.381 347.427 369.606 346.441L369.79 346.554V350.746L369.565 350.614C369.538 350.036 369.365 349.472 369.059 348.968C368.753 348.463 368.323 348.033 367.804 347.712L367.497 347.541V352.093L368.009 352.359C369.688 353.269 370.855 352.662 371.264 351.334L371.531 351.467L371.428 354.502L364.118 350.595V350.272L364.896 350.69V341.414L364.118 340.997V340.674L371.039 344.392Z" fill="white"/>
<path d="M453.722 400.348L397.904 370.492C397.219 370.041 396.659 369.447 396.268 368.758C395.877 368.07 395.666 367.306 395.651 366.528V354.957C395.651 353.421 396.655 352.719 397.904 353.383L453.722 383.22C454.403 383.677 454.959 384.275 455.347 384.967C455.734 385.658 455.942 386.424 455.954 387.203V398.774C455.954 400.31 454.951 401.012 453.722 400.348Z" fill="#FCAA2D"/>
<path d="M447.599 415.465L404.005 392.153C403.318 391.7 402.756 391.103 402.365 390.411C401.974 389.719 401.764 388.951 401.753 388.17V376.6C401.753 375.063 402.756 374.361 404.005 375.025L447.599 398.337C448.286 398.79 448.848 399.387 449.24 400.079C449.631 400.771 449.841 401.539 449.852 402.32V413.891C449.852 415.427 448.848 416.129 447.599 415.465Z" fill="#FCAA2D"/>
<path d="M402.368 359.51C403.674 360.206 404.747 361.222 405.47 362.447C406.192 363.672 406.536 365.058 406.463 366.452C406.463 369.411 405.153 370.549 402.266 369.013C400.976 368.324 399.913 367.322 399.191 366.116C398.47 364.909 398.117 363.544 398.17 362.165C398.109 359.111 399.583 358.011 402.368 359.51ZM403.842 364.65C403.842 361.938 403.842 360.534 402.286 359.737C400.73 358.941 400.668 360.287 400.668 363V363.967C400.668 366.452 400.812 367.969 402.286 368.766C403.76 369.563 403.842 368.311 403.842 365.636V364.65Z" fill="white"/>
<path d="M410.374 368.52V372.977L411.193 373.413V373.66L407.098 371.498V371.289L407.917 371.725V362.943L407.098 362.507V362.241L410.865 364.271C413.486 365.674 414.735 366.623 414.735 368.577C414.735 370.189 413.937 370.246 412.688 369.658C413.29 369.984 413.781 370.462 414.104 371.036C414.426 371.61 414.567 372.256 414.51 372.901V373.603C414.51 374.476 414.51 374.798 414.899 374.988C415.288 375.177 415.309 375.102 415.472 374.153L415.677 374.286C415.493 375.709 415.145 375.898 413.978 375.272C413.27 374.974 412.687 374.47 412.317 373.837C411.947 373.203 411.811 372.475 411.93 371.763V370.796C411.93 369.847 411.746 369.259 411.07 368.899L410.374 368.52ZM410.374 368.273L410.763 368.482C411.705 368.994 412.176 368.69 412.176 367.268V366.869C412.257 366.375 412.166 365.869 411.916 365.425C411.665 364.982 411.268 364.624 410.783 364.404L410.374 364.176V368.273Z" fill="white"/>
<path d="M421.452 377.984V375.405L420.653 374.968V374.684L424.257 376.581V376.979L423.766 376.713V380.507H423.582C423.464 380.221 423.239 379.985 422.947 379.843C422.089 379.6 421.248 379.309 420.428 378.971C419.085 378.296 417.972 377.286 417.216 376.056C416.46 374.826 416.09 373.424 416.149 372.009C416.149 368.804 417.889 368.045 420.449 369.411C421.304 369.916 422.112 370.487 422.865 371.118C423.07 371.213 423.111 371.118 423.213 371.118H423.336L423.438 374.058L423.213 373.925C422.818 372.329 421.912 370.881 420.612 369.771C419.363 369.107 418.688 369.961 418.688 372.711V373.773C418.688 376.467 419.363 378.155 420.51 378.762C421.657 379.369 421.452 378.648 421.452 377.984Z" fill="white"/>
<path d="M428.782 379.957L426.305 378.63L425.342 380.982L426.284 381.494V381.74L424.359 380.716V380.45L424.953 380.773L428.127 373.356L429.171 373.906L432.304 384.718L432.898 385.022V385.268L428.803 383.087V382.84L429.683 383.315L428.782 379.957ZM426.407 378.402L428.68 379.616L427.595 375.538L426.407 378.402Z" fill="white"/>
<path d="M440.331 389.251L438.59 388.322L434.29 377.434V385.78L434.987 386.141V386.463L433.267 385.553V385.306L433.963 385.667V376.884L433.267 376.505V376.258L436.727 378.155L440.003 386.577V380.166L439.307 379.786V379.54L441.027 380.45V380.716L440.331 380.336V389.251Z" fill="white"/>
<path d="M445.45 382.67V382.935L444.774 382.556V391.357L445.45 391.718V391.983L441.642 389.935V389.688L442.338 390.048V381.266L441.642 380.887V380.64L445.45 382.67Z" fill="white"/>
<path d="M448.829 388.588V389.631C448.829 392.078 449.484 394.012 450.876 394.752C451.88 395.283 452.699 394.6 453.395 393.254L453.62 393.368V396.289H453.477C453.456 396.199 453.417 396.115 453.361 396.04C453.304 395.965 453.233 395.901 453.149 395.852C452.285 395.62 451.449 395.309 450.651 394.923C449.311 394.249 448.2 393.243 447.444 392.016C446.688 390.79 446.317 389.392 446.372 387.981C446.372 384.775 448.132 383.997 450.692 385.363C451.512 385.867 452.293 386.425 453.026 387.032C453.231 387.146 453.272 387.032 453.374 387.032H453.497L453.6 389.972L453.374 389.858C453.054 388.269 452.176 386.822 450.876 385.742C449.504 384.984 448.829 385.837 448.829 388.588Z" fill="white"/>
<path d="M411.009 385.704L410.272 382.764L409.555 382.385V382.138L413.425 384.206V384.452L412.688 384.054L414.551 391.338L416.046 385.856L414.797 385.192V384.927L417.295 386.273V386.463L416.476 386.027L414.162 394.05L413.057 393.443L411.214 386.463L409.576 391.603L408.49 391.015L405.398 380.128L404.805 379.824V379.559L408.9 381.74V381.987L408.019 381.512L410.067 388.967L411.009 385.704Z" fill="white"/>
<path d="M419.978 393.88L417.5 392.552L416.538 394.904L417.479 395.416V395.663L415.555 394.638V394.392L416.148 394.695L419.343 387.279L420.367 387.829L423.52 398.641L424.093 398.944V399.21L419.998 397.009V396.763L420.879 397.237L419.978 393.88ZM417.623 392.324L419.875 393.538L418.79 389.479L417.623 392.324Z" fill="white"/>
<path d="M429.683 400.651C429.683 399.551 428.905 398.755 427.37 397.484C426.582 396.97 425.933 396.296 425.471 395.514C425.01 394.731 424.749 393.86 424.708 392.969C424.708 391.49 425.752 390.636 427.677 391.68C428.455 392.16 429.194 392.693 429.888 393.273C430.113 393.387 430.175 393.273 430.257 393.273H430.4V396.004L430.195 395.89C429.745 394.318 428.779 392.913 427.431 391.869C426.53 391.376 425.895 391.604 425.895 392.381C425.895 393.159 426.755 394.164 427.943 395.189C428.782 395.714 429.481 396.408 429.988 397.22C430.495 398.031 430.797 398.939 430.871 399.874C430.871 401.771 429.643 402.397 427.82 401.41C426.909 400.824 426.034 400.191 425.199 399.513C424.994 399.4 424.933 399.513 424.831 399.703H424.646L424.523 396.46L424.728 396.573C425.286 398.37 426.404 399.973 427.943 401.183C428.844 401.638 429.683 401.638 429.683 400.651Z" fill="white"/>
<path d="M439.041 401.239L438.795 401.106C438.12 398.584 437.751 397.484 436.604 396.877H436.461V405.621L437.526 406.19V406.455L432.96 404.028V403.743L434.024 404.312V395.568H433.86C432.714 394.961 432.284 395.739 431.649 397.465L431.424 397.351L431.547 394.088L438.918 398.015L439.041 401.239Z" fill="white"/>
<path d="M446.35 401.771L446.473 404.464L446.248 404.331C446.11 403.549 445.789 402.805 445.308 402.149C444.827 401.494 444.197 400.944 443.463 400.538L443.013 400.291V404.407L443.443 404.635C444.262 405.071 444.774 404.635 444.999 403.724H445.183V407.651L444.958 407.537C444.934 406.995 444.774 406.465 444.489 405.991C444.205 405.516 443.804 405.11 443.32 404.805L443.013 404.654V408.922L443.484 409.168C445.081 410.022 446.187 409.453 446.555 408.201L446.801 408.334L446.698 411.179L439.839 407.518V407.328L440.576 407.727V399.001L439.839 398.622V398.318L446.35 401.771Z" fill="white"/>
<path d="M280.493 307.746L225.514 278.345C224.844 277.893 224.296 277.303 223.912 276.622C223.529 275.941 223.32 275.187 223.303 274.419V263.038C223.303 261.521 224.306 260.838 225.514 261.483L280.493 290.845C281.165 291.296 281.715 291.885 282.099 292.567C282.483 293.248 282.69 294.003 282.704 294.772V306.153C282.786 307.708 281.804 308.391 280.493 307.746Z" fill="#61C7FF"/>
<path d="M274.534 322.654L231.534 299.665C230.856 299.218 230.302 298.63 229.914 297.948C229.526 297.266 229.317 296.509 229.302 295.739V284.358C229.302 282.841 230.305 282.158 231.534 282.803L274.534 305.811C275.214 306.256 275.77 306.844 276.158 307.526C276.546 308.209 276.754 308.966 276.766 309.737V321.118C276.766 322.617 275.762 323.299 274.534 322.654Z" fill="#61C7FF"/>
<path d="M230.388 275.86V273.319L229.589 272.882V272.655L233.131 274.552V274.836L232.661 274.59V278.383L232.476 278.288C232.359 278.003 232.133 277.767 231.841 277.625C230.997 277.38 230.17 277.088 229.364 276.752C228.037 276.059 226.945 275.037 226.211 273.8C225.476 272.564 225.129 271.162 225.207 269.753C225.207 266.585 226.927 265.826 229.446 267.173C230.278 267.678 231.071 268.236 231.821 268.842C232.026 268.956 232.087 268.842 232.169 268.842H232.292V271.725L232.067 271.612C231.694 270.033 230.799 268.601 229.507 267.515C228.279 266.87 227.623 267.704 227.623 270.436V271.46C227.623 274.115 228.279 275.785 229.405 276.392C230.531 276.999 230.388 276.449 230.388 275.86Z" fill="white"/>
<path d="M240.216 273.11L240.339 275.766L240.113 275.652C239.983 274.872 239.669 274.129 239.195 273.473C238.721 272.818 238.098 272.267 237.37 271.858L236.94 271.631V275.69L237.349 275.917C238.148 276.335 238.68 275.917 238.885 275.007H239.069V278.895L238.844 278.781C238.816 278.247 238.656 277.726 238.376 277.259C238.095 276.792 237.702 276.391 237.226 276.088L236.94 275.936V280.242L237.411 280.489C238.967 281.323 240.052 280.773 240.421 279.54L240.666 279.673V282.461L233.909 278.857V278.573L234.646 278.952V270.36L233.909 269.961V269.677L240.216 273.11Z" fill="white"/>
<path d="M248.509 286.71L246.768 285.8L242.55 275.045V283.277L243.226 283.637V283.903L241.547 282.993V282.746L242.223 283.106V274.419L241.547 274.059V273.812L244.946 275.709L248.161 284.036V277.7L247.485 277.34V277.094L249.185 277.985V278.251L248.509 277.89V286.71Z" fill="white"/>
<path d="M256.146 281.627L256.269 284.282L256.044 284.168C255.917 283.388 255.606 282.643 255.131 281.987C254.657 281.331 254.031 280.78 253.3 280.375L252.87 280.147V284.187L253.3 284.415C254.099 284.851 254.611 284.415 254.815 283.523H255V287.412L254.795 287.298C254.774 286.763 254.616 286.24 254.335 285.771C254.054 285.303 253.657 284.904 253.177 284.605L252.87 284.434V288.645L253.341 288.91C254.918 289.745 256.003 289.176 256.372 287.943L256.617 288.076V290.883L249.778 287.374V287.089L250.495 287.488V278.876L249.778 278.497V278.212L256.146 281.627Z" fill="white"/>
<path d="M260.569 288.531V292.913L261.368 293.349V293.52L257.272 291.376V291.13L258.071 291.566V282.879L257.272 282.442V282.196L260.979 284.093C263.559 285.477 264.787 286.426 264.787 288.322C264.787 290.219 263.989 289.992 262.74 289.404C263.332 289.729 263.813 290.202 264.128 290.769C264.443 291.336 264.579 291.974 264.521 292.609V293.52C264.521 294.373 264.521 294.696 264.91 294.866C265.299 295.037 265.299 294.98 265.463 294.051L265.668 294.184C265.483 295.587 265.156 295.777 264.009 295.17C263.31 294.858 262.741 294.341 262.39 293.701C262.039 293.06 261.924 292.33 262.064 291.623V290.655C262.064 289.726 261.88 289.157 261.224 288.759L260.569 288.531ZM260.569 288.284L260.958 288.493C261.88 288.967 262.33 288.683 262.33 287.279V286.881C262.412 286.396 262.325 285.899 262.082 285.462C261.839 285.026 261.453 284.672 260.979 284.453L260.569 284.244V288.284Z" fill="white"/>
<path d="M270.255 295.284L267.818 293.994L266.876 296.308L267.798 296.801V297.048L265.914 296.043V295.796L266.487 296.118L269.641 288.778L270.644 289.328L273.736 299.988L274.309 300.291V300.538L270.214 298.395V298.129L271.095 298.603L270.255 295.284ZM267.941 293.766L270.153 294.942L269.088 290.94L267.941 293.766Z" fill="white"/>
<path d="M279.121 293.918V294.203L277.811 293.501V302.112L278.261 302.34C279.797 303.156 280.473 302.34 281.189 301.126L281.455 301.259L281.21 304.218L274.698 300.728V300.424L275.415 300.823V292.23L274.698 291.832V291.623L279.121 293.918Z" fill="white"/>
<path d="M238.435 293.292L237.698 290.39L237.002 290.011V289.726L240.81 291.775V292.021L240.093 291.623L241.916 298.812L243.39 293.406L242.162 292.723V292.477L244.619 293.804V294.051L243.8 293.615L241.588 301.505L240.482 300.917L238.66 294.013L237.063 299.077L235.998 298.508L232.845 287.829L232.271 287.526V287.279L236.367 289.404V289.726L235.445 289.157L237.493 296.517L238.435 293.292Z" fill="white"/>
<path d="M247.28 301.354L244.844 300.045L243.881 302.378L244.803 302.871V303.118L242.919 302.112V301.866L243.513 302.169L246.646 294.848L247.731 295.417L250.843 306.096L251.396 306.399V306.646L247.301 304.483V304.237L248.181 304.711L247.28 301.354ZM244.946 299.817L247.178 301.012L246.113 297.01L244.946 299.817Z" fill="white"/>
<path d="M256.843 308.03C256.843 306.949 256.085 306.133 254.57 304.919C253.797 304.409 253.16 303.742 252.706 302.97C252.252 302.198 251.993 301.34 251.949 300.462C251.949 298.982 252.973 298.167 254.857 299.172C255.622 299.653 256.354 300.179 257.048 300.746C257.273 300.86 257.334 300.746 257.416 300.746H257.539V303.44L257.334 303.345C256.876 301.795 255.928 300.408 254.611 299.362C253.71 298.888 253.096 299.115 253.096 299.893C253.096 300.671 253.935 301.638 255.143 302.643C255.966 303.163 256.653 303.846 257.152 304.644C257.652 305.442 257.952 306.333 258.03 307.252C258.03 309.149 256.822 309.756 255 308.77C254.103 308.229 253.242 307.64 252.42 307.006C252.236 306.911 252.154 307.006 252.051 307.214L251.888 307.12L251.826 303.933L252.031 304.047C252.58 305.816 253.685 307.394 255.205 308.58C256.024 308.979 256.843 308.998 256.843 308.03Z" fill="white"/>
<path d="M266.159 308.694L265.913 308.58C265.258 306.077 264.869 304.995 263.866 304.407L263.702 304.312V312.943L264.746 313.512V313.778L260.016 311.293V311.008L261.061 311.577V303.004L260.897 302.909C259.791 302.321 259.361 303.08 258.726 304.806L258.501 304.673L258.624 301.467L265.893 305.261L266.159 308.694Z" fill="white"/>
<path d="M273.203 309.131L273.326 311.786L273.101 311.672C272.973 310.892 272.66 310.147 272.186 309.492C271.712 308.836 271.087 308.285 270.357 307.879L269.927 307.632V311.691L270.337 311.919C271.135 312.336 271.647 311.919 271.872 311.008L272.057 311.122V314.916L271.831 314.802C271.804 314.268 271.643 313.747 271.363 313.28C271.082 312.813 270.689 312.412 270.214 312.109L269.927 311.957V316.282L270.377 316.528C271.954 317.363 273.039 316.813 273.408 315.58L273.654 315.713V318.52L266.896 314.897V314.612L267.613 314.992V306.399L266.896 306.001V305.716L273.203 309.131Z" fill="white"/>
<path d="M240.892 328.592C240.922 330.433 241.24 332.26 241.834 334.017H243.635L241.977 337.81L237.124 334.017H238.639C237.816 331.636 237.374 329.156 237.329 326.657C237.329 317.989 243.472 314.157 251.457 317.514V321.308C245.519 319.032 240.892 321.972 240.892 328.592Z" fill="white"/>
<path d="M243.636 338.417C245.75 342.406 249.009 345.779 253.055 348.167C256.597 350.063 259.792 350.063 262.044 348.793L260.672 347.047L265.402 348.944L266.692 354.635L264.952 352.434C262.065 354.331 257.805 354.331 253.055 351.865C247.589 348.645 243.238 344.036 240.523 338.588L243.636 338.417Z" fill="white"/>
<path d="M252.44 319.62L255.942 317.723L255.758 320.075C263.231 325.405 268.944 335.363 268.944 343.671C269.013 345.881 268.485 348.072 267.409 350.045L264.317 346.479C265.09 345.017 265.462 343.401 265.402 341.775C265.18 338.29 264.183 334.886 262.474 331.776C260.765 328.665 258.381 325.915 255.471 323.698L255.348 325.272L252.44 319.62Z" fill="white"/>
<path d="M327.588 374.969C327.611 376.809 327.922 378.636 328.509 380.394H330.352L328.673 384.187L323.841 380.394H325.356C324.523 378.015 324.081 375.534 324.046 373.034C324.046 364.366 330.188 360.534 338.174 363.891V367.685C332.236 365.409 327.588 368.387 327.588 374.969Z" fill="white"/>
<path d="M330.455 384.794C332.569 388.783 335.828 392.156 339.874 394.544C343.417 396.44 346.59 396.44 348.843 395.151L347.491 393.424L352.201 395.321L353.491 401.106L351.771 398.906C348.863 400.898 344.625 400.803 339.874 398.337C334.406 395.12 330.055 390.51 327.343 385.06L330.455 384.794Z" fill="white"/>
<path d="M339.178 365.997L342.659 364.1L342.495 366.357C349.948 371.687 355.661 381.646 355.661 389.935C355.729 392.142 355.209 394.331 354.146 396.308L351.054 392.761C351.81 391.294 352.175 389.681 352.119 388.057C351.897 384.575 350.902 381.172 349.197 378.062C347.492 374.952 345.113 372.201 342.208 369.98L342.085 371.536L339.178 365.997Z" fill="white"/>
<path d="M413.937 421.213C413.966 423.06 414.283 424.893 414.879 426.656H416.701L415.042 430.45L410.189 426.656H411.705C410.873 424.284 410.431 421.81 410.394 419.316C410.394 410.647 416.537 406.816 424.523 410.173V413.967C418.564 411.672 413.937 414.65 413.937 421.213Z" fill="white"/>
<path d="M416.763 431.057C418.872 435.044 422.132 438.413 426.182 440.788C429.724 442.685 432.919 442.779 435.171 441.414L433.799 439.688L438.529 441.584L439.819 447.37L438.079 445.169C435.191 447.161 430.932 447.066 426.182 444.6C420.718 441.378 416.368 436.769 413.65 431.323L416.763 431.057Z" fill="white"/>
<path d="M425.485 412.26L428.987 410.363L428.803 412.62C436.276 417.931 441.989 427.889 441.989 436.197C442.058 438.407 441.53 440.598 440.454 442.571L437.362 439.024C438.125 437.552 438.497 435.932 438.447 434.3C438.218 430.82 437.218 427.421 435.51 424.314C433.801 421.208 431.421 418.46 428.516 416.243L428.393 417.798L425.485 412.26Z" fill="white"/>
</g>
<defs>
<clipPath id="clip0_134_623">
<rect width="368" height="386" fill="white" transform="translate(206 95)"/>
</clipPath>
</defs>
</svg>
